<svg width="618" height="104" viewBox="0 0 618 104" fill="none" xmlns="http://www.w3.org/2000/svg">
<path d="M6.53693 13.1818V83H20.8551V37.3864H21.4347L39.5028 82.6591H49.2528L67.321 37.5568H67.9006V83H82.2188V13.1818H64.0142L44.7869 60.0909H43.9688L24.7415 13.1818H6.53693ZM109.04 83.9886C116.778 83.9886 121.79 80.6136 124.347 75.7386H124.756V83H138.528V47.6818C138.528 35.2045 127.96 29.9545 116.301 29.9545C103.756 29.9545 95.5057 35.9545 93.4943 45.5L106.926 46.5909C107.915 43.1136 111.017 40.5568 116.233 40.5568C121.176 40.5568 124.006 43.0455 124.006 47.3409V47.5455C124.006 50.9205 120.426 51.3636 111.324 52.25C100.96 53.2045 91.6534 56.6818 91.6534 68.375C91.6534 78.7386 99.0511 83.9886 109.04 83.9886ZM113.199 73.9659C108.733 73.9659 105.528 71.8864 105.528 67.8977C105.528 63.8068 108.903 61.7955 114.017 61.0795C117.188 60.6364 122.369 59.8864 124.108 58.7273V64.2841C124.108 69.7727 119.574 73.9659 113.199 73.9659ZM149.795 83H164.318V53.375C164.318 46.9318 169.023 42.5 175.432 42.5C177.443 42.5 180.205 42.8409 181.568 43.2841V30.3977C180.273 30.0909 178.466 29.8864 177 29.8864C171.136 29.8864 166.33 33.2955 164.42 39.7727H163.875V30.6364H149.795V83ZM189.077 83H203.599V66.3636L207.52 61.8977L221.804 83H238.815L218.395 53.3068L237.827 30.6364H221.156L204.384 50.5114H203.599V13.1818H189.077V83ZM291.384 13.1818H278.565V59.4773L261.418 42.3295L252.69 51.125L284.974 83.4091L317.327 51.125L308.463 42.3295L291.384 59.4773V13.1818ZM336.818 13.1818V83H351.136V37.3864H351.716L369.784 82.6591H379.534L397.602 37.5568H398.182V83H412.5V13.1818H394.295L375.068 60.0909H374.25L355.023 13.1818H336.818ZM439.321 83.9886C447.06 83.9886 452.071 80.6136 454.628 75.7386H455.037V83H468.81V47.6818C468.81 35.2045 458.241 29.9545 446.582 29.9545C434.037 29.9545 425.787 35.9545 423.776 45.5L437.207 46.5909C438.196 43.1136 441.298 40.5568 446.514 40.5568C451.457 40.5568 454.287 43.0455 454.287 47.3409V47.5455C454.287 50.9205 450.707 51.3636 441.605 52.25C431.241 53.2045 421.935 56.6818 421.935 68.375C421.935 78.7386 429.332 83.9886 439.321 83.9886ZM443.48 73.9659C439.014 73.9659 435.81 71.8864 435.81 67.8977C435.81 63.8068 439.185 61.7955 444.298 61.0795C447.469 60.6364 452.651 59.8864 454.389 58.7273V64.2841C454.389 69.7727 449.855 73.9659 443.48 73.9659ZM503.668 103.386C518.634 103.386 529.27 96.5682 529.27 83.5114V30.6364H514.849V39.4318H514.304C512.361 35.1705 508.099 29.9545 499.338 29.9545C487.849 29.9545 478.134 38.8864 478.134 56.7159C478.134 74.1364 487.577 82.25 499.372 82.25C507.724 82.25 512.395 78.0568 514.304 73.7273H514.918V83.3068C514.918 90.1591 510.315 92.9545 504.009 92.9545C497.599 92.9545 494.361 90.1591 493.168 87.3295L479.736 89.1364C481.474 97.0455 489.554 103.386 503.668 103.386ZM503.974 71.3409C496.849 71.3409 492.963 65.6818 492.963 56.6477C492.963 47.75 496.781 41.5114 503.974 41.5114C511.031 41.5114 514.986 47.4773 514.986 56.6477C514.986 65.8864 510.963 71.3409 503.974 71.3409ZM540.827 83H555.349V30.6364H540.827V83ZM548.122 23.8864C552.452 23.8864 555.997 20.5795 555.997 16.5227C555.997 12.5 552.452 9.19318 548.122 9.19318C543.827 9.19318 540.281 12.5 540.281 16.5227C540.281 20.5795 543.827 23.8864 548.122 23.8864ZM590.642 84.0227C604.585 84.0227 613.347 75.8409 614.028 63.8068H600.324C599.472 69.3977 595.79 72.5341 590.812 72.5341C584.028 72.5341 579.631 66.8409 579.631 56.8182C579.631 46.9318 584.062 41.2727 590.812 41.2727C596.131 41.2727 599.54 44.7841 600.324 50H614.028C613.415 37.8977 604.244 29.9545 590.574 29.9545C574.688 29.9545 564.869 40.9659 564.869 57.0227C564.869 72.9432 574.517 84.0227 590.642 84.0227Z" fill="url(#paint0_linear)"/>
<defs>
<linearGradient id="paint0_linear" x1="0" y1="0" x2="618.651" y2="91.6006" gradientUnits="userSpaceOnUse">
<stop stop-color="#AA28FB"/>
<stop offset="1" stop-color="#CA28FB"/>
</linearGradient>
</defs>
</svg>
